<mxfile host="app.diagrams.net" modified="2020-11-30T07:55:59.859Z" agent="5.0 (Windows NT 10.0; Win64; x64) AppleWebKit/537.36 (KHTML, like Gecko) Chrome/86.0.4240.198 Safari/537.36" etag="kAN874pw_lNT4NkQHfCR" version="13.10.4" type="github">
  <diagram id="KhsklGTtEGQ5Gy6JObHU" name="Page-1">
    <mxGraphModel dx="1038" dy="1744" grid="1" gridSize="10" guides="1" tooltips="1" connect="1" arrows="1" fold="1" page="1" pageScale="1" pageWidth="827" pageHeight="1169" background="#EEEEEE" math="0" shadow="0">
      <root>
        <mxCell id="0" />
        <mxCell id="1" parent="0" />
        <mxCell id="tAI2BneLDk_JPqfs_pAY-50" value="框架工具" style="rounded=1;whiteSpace=wrap;html=1;sketch=0;gradientColor=#b3b3b3;fillColor=#f5f5f5;strokeColor=#666666;verticalAlign=top;arcSize=22;" parent="1" vertex="1">
          <mxGeometry x="70" y="350" width="570" height="110" as="geometry" />
        </mxCell>
        <mxCell id="ywUDVs_6B-Btmyf5ewqs-1" value="" style="edgeStyle=orthogonalEdgeStyle;rounded=0;orthogonalLoop=1;jettySize=auto;html=1;" edge="1" parent="1" source="tAI2BneLDk_JPqfs_pAY-15">
          <mxGeometry relative="1" as="geometry">
            <mxPoint x="245" y="349" as="targetPoint" />
          </mxGeometry>
        </mxCell>
        <mxCell id="tAI2BneLDk_JPqfs_pAY-15" value="头盔主要功能" style="rounded=1;whiteSpace=wrap;html=1;sketch=0;gradientColor=#b3b3b3;fillColor=#f5f5f5;strokeColor=#666666;verticalAlign=top;arcSize=21;" parent="1" vertex="1">
          <mxGeometry x="70" y="90" width="350" height="230" as="geometry" />
        </mxCell>
        <mxCell id="tAI2BneLDk_JPqfs_pAY-4" value="人脸识别组件" style="whiteSpace=wrap;html=1;fillColor=#f8cecc;strokeColor=#b85450;rounded=1;gradientColor=#ea6b66;" parent="1" vertex="1">
          <mxGeometry x="100" y="130" width="120" height="60" as="geometry" />
        </mxCell>
        <mxCell id="tAI2BneLDk_JPqfs_pAY-6" value="身份证识别组件" style="whiteSpace=wrap;html=1;fillColor=#f8cecc;strokeColor=#b85450;rounded=1;gradientColor=#ea6b66;" parent="1" vertex="1">
          <mxGeometry x="270" y="220" width="120" height="60" as="geometry" />
        </mxCell>
        <mxCell id="tAI2BneLDk_JPqfs_pAY-16" value="功能切换" style="edgeStyle=orthogonalEdgeStyle;curved=1;rounded=1;sketch=0;orthogonalLoop=1;jettySize=auto;html=1;entryX=0.5;entryY=0;entryDx=0;entryDy=0;strokeColor=#182E3E;fontColor=#1A1A1A;" parent="1" source="tAI2BneLDk_JPqfs_pAY-7" target="tAI2BneLDk_JPqfs_pAY-15" edge="1">
          <mxGeometry relative="1" as="geometry" />
        </mxCell>
        <mxCell id="tAI2BneLDk_JPqfs_pAY-7" value="ARouter导航" style="whiteSpace=wrap;html=1;fillColor=#f8cecc;strokeColor=#b85450;rounded=1;gradientColor=#ea6b66;" parent="1" vertex="1">
          <mxGeometry x="110" y="-20" width="120" height="60" as="geometry" />
        </mxCell>
        <mxCell id="tAI2BneLDk_JPqfs_pAY-17" value="控制" style="edgeStyle=orthogonalEdgeStyle;curved=1;rounded=1;sketch=0;orthogonalLoop=1;jettySize=auto;html=1;entryX=1;entryY=0.5;entryDx=0;entryDy=0;strokeColor=#182E3E;fontColor=#1A1A1A;" parent="1" source="tAI2BneLDk_JPqfs_pAY-8" target="tAI2BneLDk_JPqfs_pAY-7" edge="1">
          <mxGeometry relative="1" as="geometry" />
        </mxCell>
        <mxCell id="tAI2BneLDk_JPqfs_pAY-34" style="edgeStyle=orthogonalEdgeStyle;curved=1;rounded=1;sketch=0;orthogonalLoop=1;jettySize=auto;html=1;entryX=0.5;entryY=0;entryDx=0;entryDy=0;strokeColor=#182E3E;fontColor=#1A1A1A;" parent="1" source="tAI2BneLDk_JPqfs_pAY-8" target="tAI2BneLDk_JPqfs_pAY-30" edge="1">
          <mxGeometry relative="1" as="geometry" />
        </mxCell>
        <mxCell id="tAI2BneLDk_JPqfs_pAY-8" value="蓝牙信号接收服务" style="whiteSpace=wrap;html=1;fillColor=#f8cecc;strokeColor=#b85450;rounded=1;gradientColor=#ea6b66;" parent="1" vertex="1">
          <mxGeometry x="480" y="-20" width="120" height="60" as="geometry" />
        </mxCell>
        <mxCell id="tAI2BneLDk_JPqfs_pAY-14" value="" style="edgeStyle=orthogonalEdgeStyle;curved=1;rounded=1;sketch=0;orthogonalLoop=1;jettySize=auto;html=1;strokeColor=#182E3E;fontColor=#1A1A1A;" parent="1" source="tAI2BneLDk_JPqfs_pAY-13" target="tAI2BneLDk_JPqfs_pAY-7" edge="1">
          <mxGeometry relative="1" as="geometry" />
        </mxCell>
        <mxCell id="tAI2BneLDk_JPqfs_pAY-13" value="头盔" style="shape=actor;whiteSpace=wrap;html=1;rounded=1;sketch=0;strokeColor=#b85450;fillColor=#f8cecc;gradientColor=#ea6b66;verticalAlign=bottom;" parent="1" vertex="1">
          <mxGeometry x="150" y="-130" width="40" height="60" as="geometry" />
        </mxCell>
        <mxCell id="tAI2BneLDk_JPqfs_pAY-24" value="红外测温组件" style="whiteSpace=wrap;html=1;fillColor=#f8cecc;strokeColor=#b85450;rounded=1;gradientColor=#ea6b66;" parent="1" vertex="1">
          <mxGeometry x="270" y="130" width="120" height="60" as="geometry" />
        </mxCell>
        <mxCell id="tAI2BneLDk_JPqfs_pAY-25" value="车牌识别组件" style="whiteSpace=wrap;html=1;fillColor=#f8cecc;strokeColor=#b85450;rounded=1;gradientColor=#ea6b66;" parent="1" vertex="1">
          <mxGeometry x="100" y="220" width="120" height="60" as="geometry" />
        </mxCell>
        <mxCell id="tAI2BneLDk_JPqfs_pAY-30" value="远程控制相关功能" style="rounded=1;html=1;sketch=0;gradientColor=#b3b3b3;fillColor=#f5f5f5;strokeColor=#666666;arcSize=20;labelPosition=center;verticalLabelPosition=middle;align=center;verticalAlign=top;" parent="1" vertex="1">
          <mxGeometry x="435" y="90" width="210" height="230" as="geometry" />
        </mxCell>
        <mxCell id="tAI2BneLDk_JPqfs_pAY-39" style="edgeStyle=orthogonalEdgeStyle;curved=1;rounded=1;sketch=0;orthogonalLoop=1;jettySize=auto;html=1;strokeColor=#182E3E;fontColor=#1A1A1A;" parent="1" source="tAI2BneLDk_JPqfs_pAY-31" target="tAI2BneLDk_JPqfs_pAY-24" edge="1">
          <mxGeometry relative="1" as="geometry" />
        </mxCell>
        <mxCell id="tAI2BneLDk_JPqfs_pAY-31" value="参数设置" style="whiteSpace=wrap;html=1;fillColor=#f8cecc;strokeColor=#b85450;rounded=1;gradientColor=#ea6b66;" parent="1" vertex="1">
          <mxGeometry x="480" y="130" width="120" height="60" as="geometry" />
        </mxCell>
        <mxCell id="tAI2BneLDk_JPqfs_pAY-38" value="控制信号" style="edgeStyle=orthogonalEdgeStyle;curved=1;rounded=1;sketch=0;orthogonalLoop=1;jettySize=auto;html=1;entryX=0.5;entryY=0;entryDx=0;entryDy=0;strokeColor=#182E3E;fontColor=#1A1A1A;" parent="1" source="tAI2BneLDk_JPqfs_pAY-36" target="tAI2BneLDk_JPqfs_pAY-8" edge="1">
          <mxGeometry relative="1" as="geometry" />
        </mxCell>
        <mxCell id="tAI2BneLDk_JPqfs_pAY-36" value="手机端应用" style="image;html=1;image=img/lib/clip_art/telecommunication/iPhone_128x128.png;rounded=1;sketch=0;strokeColor=#909090;fillColor=#F5AB50;fontColor=#1A1A1A;verticalAlign=middle;horizontal=1;align=center;labelPosition=center;verticalLabelPosition=middle;labelBackgroundColor=none;" parent="1" vertex="1">
          <mxGeometry x="500" y="-140" width="80" height="80" as="geometry" />
        </mxCell>
        <mxCell id="tAI2BneLDk_JPqfs_pAY-41" style="rounded=1;sketch=0;orthogonalLoop=1;jettySize=auto;html=1;entryX=1;entryY=1;entryDx=0;entryDy=0;strokeColor=#182E3E;fontColor=#1A1A1A;exitX=0;exitY=0.5;exitDx=0;exitDy=0;" parent="1" source="tAI2BneLDk_JPqfs_pAY-40" target="tAI2BneLDk_JPqfs_pAY-24" edge="1">
          <mxGeometry relative="1" as="geometry" />
        </mxCell>
        <mxCell id="tAI2BneLDk_JPqfs_pAY-40" value="黑体测温" style="whiteSpace=wrap;html=1;fillColor=#f8cecc;strokeColor=#b85450;rounded=1;gradientColor=#ea6b66;" parent="1" vertex="1">
          <mxGeometry x="480" y="220" width="120" height="60" as="geometry" />
        </mxCell>
        <mxCell id="tAI2BneLDk_JPqfs_pAY-48" value="loading框架" style="whiteSpace=wrap;html=1;fillColor=#f8cecc;strokeColor=#b85450;rounded=1;gradientColor=#ea6b66;" parent="1" vertex="1">
          <mxGeometry x="295" y="375" width="120" height="60" as="geometry" />
        </mxCell>
        <mxCell id="tAI2BneLDk_JPqfs_pAY-49" value="蓝牙连接框架" style="whiteSpace=wrap;html=1;fillColor=#f8cecc;strokeColor=#b85450;rounded=1;gradientColor=#ea6b66;" parent="1" vertex="1">
          <mxGeometry x="110" y="372.5" width="120" height="60" as="geometry" />
        </mxCell>
        <mxCell id="tAI2BneLDk_JPqfs_pAY-51" value="参数配置类" style="whiteSpace=wrap;html=1;fillColor=#f8cecc;strokeColor=#b85450;rounded=1;gradientColor=#ea6b66;" parent="1" vertex="1">
          <mxGeometry x="480" y="372.5" width="120" height="60" as="geometry" />
        </mxCell>
      </root>
    </mxGraphModel>
  </diagram>
</mxfile>
